<svg width="24" height="24" viewBox="0 0 24 24" fill="none" xmlns="http://www.w3.org/2000/svg">
<path d="M13.314 11.8999L16.849 8.36394C16.9445 8.27169 17.0207 8.16135 17.0731 8.03935C17.1255 7.91734 17.1531 7.78612 17.1543 7.65334C17.1554 7.52056 17.1301 7.38888 17.0798 7.26599C17.0295 7.14309 16.9553 7.03144 16.8614 6.93755C16.7675 6.84365 16.6559 6.7694 16.533 6.71912C16.4101 6.66884 16.2784 6.64354 16.1456 6.64469C16.0128 6.64584 15.8816 6.67343 15.7596 6.72584C15.6376 6.77825 15.5273 6.85443 15.435 6.94994L11.899 10.4849L8.364 6.94994C8.27176 6.85443 8.16141 6.77825 8.03941 6.72584C7.9174 6.67343 7.78618 6.64584 7.6534 6.64469C7.52062 6.64354 7.38894 6.66884 7.26605 6.71912C7.14315 6.7694 7.0315 6.84365 6.93761 6.93755C6.84371 7.03144 6.76946 7.14309 6.71918 7.26599C6.6689 7.38888 6.6436 7.52056 6.64475 7.65334C6.64591 7.78612 6.67349 7.91734 6.7259 8.03935C6.77831 8.16135 6.85449 8.27169 6.95 8.36394L10.485 11.8989L6.95 15.4349C6.85449 15.5272 6.77831 15.6375 6.7259 15.7595C6.67349 15.8815 6.64591 16.0128 6.64475 16.1455C6.6436 16.2783 6.6689 16.41 6.71918 16.5329C6.76946 16.6558 6.84371 16.7674 6.93761 16.8613C7.0315 16.9552 7.14315 17.0295 7.26605 17.0798C7.38894 17.13 7.52062 17.1553 7.6534 17.1542C7.78618 17.153 7.9174 17.1255 8.03941 17.073C8.16141 17.0206 8.27176 16.9445 8.364 16.8489L11.899 13.3139L15.435 16.8489C15.5273 16.9445 15.6376 17.0206 15.7596 17.073C15.8816 17.1255 16.0128 17.153 16.1456 17.1542C16.2784 17.1553 16.4101 17.13 16.533 17.0798C16.6559 17.0295 16.7675 16.9552 16.8614 16.8613C16.9553 16.7674 17.0295 16.6558 17.0798 16.5329C17.1301 16.41 17.1554 16.2783 17.1543 16.1455C17.1531 16.0128 17.1255 15.8815 17.0731 15.7595C17.0207 15.6375 16.9445 15.5272 16.849 15.4349L13.314 11.8989V11.8999Z" fill="black"/>
</svg>
