<svg xmlns="http://www.w3.org/2000/svg" width="341.28mm" height="131.89mm" viewBox="0 0 967.41 373.85"><defs><style>.cls-1{fill:#3c3c3c;}</style></defs><title>racechip_logo</title><g id="Ebene_2" data-name="Ebene 2"><g id="Ebene_1-2" data-name="Ebene 1"><path class="cls-1" d="M874.48,254.79v0Z"/><path class="cls-1" d="M644.1,32.18c-5.3,0-12.83,2-16,9.36L566.6,183.89H708.36L725.53,144l-80.17,0,8.54-19.61h80.22l14.52-34.09H668.58l7.88-18h79.78l17-40Z"/><path class="cls-1" d="M641.19,218.26v0c-5.3,0-12.83,2-16,9.36l-19,44H559.78l23.05-53.34H530.21v0c-5.3,0-12.84,2-16,9.36L452.56,370.32h64.59l24.36-56.26h46.32l-24.29,56.26h64.59l65.68-152.06Z"/><path class="cls-1" d="M792.87,218.26H737v0c-5.29,0-12.83,2-16,9.36L659.37,370.32H727.2Z"/><path class="cls-1" d="M867.65,271.08H813.93v0c-5.29,0-12.83,1.95-16,9.36L759,370.24h65.4Z"/><path class="cls-1" d="M603.67,35.14c-8.74-2.47-19.21-6.93-49.65-6.93-84.57,0-126,48.67-126,93.14,0,21.52,14.75,66,87.83,66a182.58,182.58,0,0,0,27-2.16l18.7-42.64A200.22,200.22,0,0,1,538.84,144c-25.42,0-47-10.89-47-31.51S520.7,71,556.3,71c14,0,30.11,3.92,30.11,3.92Z"/><path class="cls-1" d="M490.34,221.66c-8.75-2.46-19.22-6.93-49.66-6.93-84.56,0-126,48.67-126,93.14,0,21.53,14.75,66,87.83,66a182.36,182.36,0,0,0,27-2.16l18.71-42.64a200.45,200.45,0,0,1-22.74,1.47c-25.43,0-47-10.89-47-31.5s28.85-41.48,64.45-41.48c13.95,0,30.1,3.92,30.1,3.92Z"/><path class="cls-1" d="M886.35,254.79c12.57,0,23.37,2.33,23.37,10,0,22.53-30.86,20.56-30.86,20.56l-16.74,38.3h22.65c74.58,0,82.64-46.12,82.64-58.34,0-31-24.42-47-60.39-47l-70.42,0h0c-5.3,0-12.83,1.95-16,9.36l-11.76,27.16Z"/><path class="cls-1" d="M126,57.07H66.66c-9.4,0-13.85,5-17.11,12.5L0,183.89H70.9Z"/><path class="cls-1" d="M262.1,183.89l18.06-18.23h74.71l1.63,18.23h58.62L400.42,32.23H345c-7,0-10,.59-14.36,5.09L205.23,165.59,170,110c72.18-8.35,77.54-46.61,77.54-61.69C247.54,24.39,232.64,0,181.08,0h-160c2.54,9.63,11.74,40.18,47.56,40.18h74.12c18,0,31.74,2.28,31.74,15.49,0,12.5-14.36,24.53-40.73,24.53L111,132.81l29.26,45.52c2.12,3.27,6.76,5.55,11.79,5.55ZM354,130.62H313.13L352.21,87.4Z"/></g></g></svg>